<svg xmlns="http://www.w3.org/2000/svg" viewBox="0 0 224 318.25"><defs><style>.cls-1{fill:#1e196a;}.cls-2{fill:#e2136e;}</style></defs><title>Asset 1</title><g id="Layer_2" data-name="Layer 2"><g id="Layer_1-2" data-name="Layer 1"><path class="cls-1" d="M180.05,22.36l-.05,0a4,4,0,0,0-5.35.53L128,73.76V47.11l29.8-32.35a4,4,0,0,0-1.38-6.39l-.08,0a4,4,0,0,0-4.46,1L128,35.23V4.07a4,4,0,0,0-3.57-4h-.08a4,4,0,0,0-4.39,4V94.71l60.67-66.47A4,4,0,0,0,180.05,22.36Z"/><path class="cls-1" d="M166.91,121.16,214.4,69.44a3.92,3.92,0,0,0,.67-4.3l0-.08a4,4,0,0,0-6.6-1L175,100.5V73L199.7,46.2a4,4,0,0,0,.17-5.25l-.05-.06a4,4,0,0,0-6-.18L166.91,69.75Z"/><path class="cls-1" d="M150.67,215.92,180,184.2h18a3.92,3.92,0,0,0,3.07-1.49l.06-.08a4,4,0,0,0-3.11-6.43H187.4L221.64,140a4,4,0,0,0,1-1.84l0-.14a4,4,0,0,0-6.82-3.56l-61.11,65.3V172.15L223,99.07a4,4,0,0,0,1-3.31l0-.1a4,4,0,0,0-6.89-2L146.65,169v45.31A2.32,2.32,0,0,0,150.67,215.92Z"/><path class="cls-1" d="M77.2,214.35l0-45.32v0L7.32,93.62A4,4,0,0,0,.38,95.77h0a4,4,0,0,0,1,3.3l67.78,73.08v0l0,27.48a0,0,0,0,1-.07,0L8.84,134.43A4,4,0,0,0,2,138.09H2a4,4,0,0,0,1,1.79l33.3,36.26a0,0,0,0,1,0,.07H26.68a4.06,4.06,0,0,0-3.19,6.58h0a4,4,0,0,0,3.14,1.52H43.83L73.2,215.92A2.31,2.31,0,0,0,77.2,214.35Z"/><path class="cls-1" d="M100.24,0h-.08a4,4,0,0,0-3.57,4v31.6L72.74,9.31a4,4,0,0,0-4.51-1l-.08,0a4,4,0,0,0-1.37,6.4l29.8,32.87V73.9L49.26,22.84a4,4,0,0,0-5.35-.46l-.06,0a4,4,0,0,0-.5,5.88l61.28,66.12V4A4,4,0,0,0,100.24,0Z"/><path class="cls-1" d="M57.7,69.66l-26.92-29a4,4,0,0,0-6,.17l-.05.06a4,4,0,0,0,.15,5.25L49.65,72.87v27.63L16.16,64a4,4,0,0,0-6.57,1.06l0,.08a4,4,0,0,0,.7,4.33l47.44,51.7Z"/><path class="cls-1" d="M145.83,92.3l-33.74,36.07-33.34-36a4.06,4.06,0,0,0-7,2.76h0a4.06,4.06,0,0,0,1.08,2.76l39.3,42.47,39.7-42.44a4.08,4.08,0,0,0,1.1-2.79h0A4.08,4.08,0,0,0,145.83,92.3Z"/><path class="cls-1" d="M139,136.56l-19,20v64.71a4,4,0,0,0,4.37,4h.08a4,4,0,0,0,3.6-4v-61.5l16.81-17.7a4,4,0,0,0,1.08-2.73h0A4,4,0,0,0,139,136.56Z"/><path class="cls-1" d="M78.93,139.31h0A4,4,0,0,0,80,142.06l16.56,17.7-.09,40.86.07,20.62a4,4,0,0,0,3.59,4h.08a4,4,0,0,0,4.39-4V156.58l-18.73-20A4,4,0,0,0,78.93,139.31Z"/><path class="cls-1" d="M142.33,280.39v6.73h-1.49q-5.27,0-10.53,4.14a.21.21,0,0,0-.08.16v25.52a.2.2,0,0,1-.2.2h-7a.2.2,0,0,1-.2-.2V281.37a.2.2,0,0,1,.2-.2h4.63a2.54,2.54,0,0,1,2.54,2.54v.84a.2.2,0,0,0,.33.14q5-4.3,10.28-4.3Z"/><path class="cls-1" d="M159.61,308.73q2.72,3.11,8.48,3.11a18.63,18.63,0,0,0,5-.68,34.78,34.78,0,0,0,5.37-2l2.07,6a24.21,24.21,0,0,1-6.21,2.43,30.63,30.63,0,0,1-7,.75,19.55,19.55,0,0,1-10-2.39,15.56,15.56,0,0,1-6.24-6.73,24.89,24.89,0,0,1,.06-20.32,15.35,15.35,0,0,1,6-6.47,16.67,16.67,0,0,1,8.48-2.2q7.31,0,11.49,4.43t4.17,12.91h0a2.91,2.91,0,0,1-2.91,2.91H156.63A13.27,13.27,0,0,0,159.61,308.73ZM157,294.43h16.57q-.33-4.08-2.27-6a7.71,7.71,0,0,0-5.63-1.91Q158.5,286.54,157,294.43Z"/><path class="cls-1" d="M200.1,308.73q2.72,3.11,8.48,3.11a18.63,18.63,0,0,0,5-.68,34.78,34.78,0,0,0,5.37-2l2.07,6a24.21,24.21,0,0,1-6.21,2.43,30.63,30.63,0,0,1-7,.75,19.55,19.55,0,0,1-10-2.39,15.56,15.56,0,0,1-6.24-6.73,24.89,24.89,0,0,1,.06-20.32,15.35,15.35,0,0,1,6-6.47,16.67,16.67,0,0,1,8.48-2.2q7.31,0,11.49,4.43t4.17,12.91h0a2.91,2.91,0,0,1-2.91,2.91H197.13A13.27,13.27,0,0,0,200.1,308.73Zm-2.65-14.3H214q-.33-4.08-2.27-6a7.71,7.71,0,0,0-5.63-1.91Q199,286.54,197.45,294.43Z"/><path class="cls-1" d="M43.76,268.09,28.75,290l-18.69-27.2a4,4,0,0,0-3.28-1.71H0l5.2,7.41v48.64h7.64V279.42l15.95,22.52,15.89-22.59v37.79h7.64V270.68a2.58,2.58,0,0,0-2.58-2.58Z"/><path class="cls-1" d="M82.65,270.41v4.41H97.08v42.32h7.64V274.83h11.88a2.56,2.56,0,0,0,2.55-2.56v-4.17H85A2.32,2.32,0,0,0,82.65,270.41Z"/><circle class="cls-2" cx="66.59" cy="312.58" r="4.57"/></g></g></svg>